<?xml version="1.0" encoding="utf-8"?>
<svg version="1.1" xmlns:xlink="http://www.w3.org/1999/xlink" width="19px" height="20px" xmlns="http://www.w3.org/2000/svg">
  <g transform="matrix(1 0 0 1 -332 -465 )">
    <path d="M 8.007142857142858 8.4  C 8.007142857142858 10.458666666666668  6.302571428571429 12.133333333333336  4.207142857142857 12.133333333333333  C 2.1117142857142857 12.133333333333333  0.4071428571428575 10.458666666666666  0.4071428571428575 8.4  L 0.4071428571428575 2.010666666666667  C 0.4071428571428575 1.5733333333333333  0.7762857142857147 1.2106666666666666  1.2214285714285718 1.2106666666666666  C 1.6665714285714293 1.2106666666666666  2.0357142857142865 1.5733333333333333  2.0357142857142865 2.010666666666667  L 2.0357142857142865 8.4  C 2.0357142857142865 9.573333333333332  3.012857142857144 10.533333333333335  4.207142857142858 10.533333333333335  C 5.401428571428572 10.533333333333335  6.37857142857143 9.573333333333334  6.37857142857143 8.4  L 6.37857142857143 2.6613333333333338  C 6.37857142857143 2.298666666666667  6.07457142857143 2.000000000000001  5.705428571428572 2.000000000000001  C 5.325428571428572 2.000000000000001  5.021428571428572 2.2986666666666675  5.021428571428572 2.6613333333333338  L 5.021428571428572 8.389333333333335  C 5.021428571428572 8.826666666666668  4.652285714285715 9.189333333333334  4.207142857142858 9.189333333333334  C 3.762000000000002 9.189333333333334  3.392857142857144 8.826666666666668  3.392857142857144 8.389333333333335  L 3.392857142857144 2.6613333333333338  C 3.392857142857144 1.413333333333334  4.424285714285715 0.40000000000000063  5.705428571428572 0.40000000000000063  C 6.975714285714286 0.40000000000000063  8.007142857142858 1.413333333333334  8.007142857142858 2.6613333333333338  L 8.007142857142858 8.4  Z M 16.649428571428572 19.6  L 5.879142857142857 19.6  C 4.598 19.6  3.6642857142857146 18.682666666666666  3.6642857142857146 17.424  L 3.6642857142857146 14  C 3.6642857142857146 13.562666666666667  4.033428571428572 13.200000000000001  4.478571428571429 13.200000000000001  C 4.923714285714286 13.200000000000001  5.292857142857143 13.562666666666667  5.292857142857143 14  L 5.292857142857143 17.445333333333334  C 5.292857142857143 17.776  5.520857142857143 18  5.8574285714285725 18  L 16.671142857142858 18  C 17.007714285714286 18  17.235714285714288 17.776  17 17.445333333333334  L 17 3.6213333333333324  C 17.235714285714288 3.2906666666666657  17.007714285714286 3.066666666666666  16.671142857142858 3.066666666666666  L 10.732285714285716 3.066666666666666  C 10.287142857142861 3.066666666666666  9.918000000000003 2.7039999999999993  9.918000000000003 2.2666666666666657  C 9.918000000000003 1.829333333333332  10.287142857142861 1.4666666666666655  10.732285714285716 1.4666666666666655  L 16.649428571428572 1.4666666666666655  C 17.93057142857143 1.4666666666666655  18.864285714285714 2.383999999999999  18.864285714285714 3.6426666666666656  L 18.864285714285714 17.424  C 18.864285714285714 18.682666666666666  17.93057142857143 19.6  16.649428571428572 19.6  Z M 14.239142857142857 9.200000000000001  L 11.003714285714286 9.200000000000001  C 10.536857142857144 9.200000000000001  10.178571428571429 8.858666666666666  10.178571428571429 8.4  C 10.178571428571429 7.9413333333333345  10.53685714285714 7.600000000000001  11.003714285714286 7.600000000000001  L 14.239142857142857 7.600000000000001  C 14.706 7.600000000000001  15.064285714285715 7.9413333333333345  15.064285714285715 8.4  C 15.064285714285715 8.858666666666666  14.706000000000003 9.200000000000001  14.239142857142857 9.200000000000001  Z M 14.781999999999998 12.4  L 9.918000000000001 12.4  C 9.451142857142857 12.4  9.092857142857143 12.058666666666667  9.092857142857143 11.600000000000001  C 9.092857142857143 11.141333333333336  9.451142857142857 10.800000000000002  9.918000000000001 10.800000000000002  L 14.781999999999998 10.800000000000002  C 15.24885714285714 10.800000000000002  15.607142857142856 11.141333333333336  15.607142857142856 11.600000000000001  C 15.607142857142856 12.058666666666667  15.248857142857144 12.4  14.781999999999998 12.4  Z M 13.696285714285715 15.599999999999998  L 8.832285714285714 15.599999999999998  C 8.365428571428572 15.599999999999998  8.007142857142858 15.258666666666665  8.007142857142858 14.8  C 8.007142857142858 14.341333333333333  8.365428571428572 14  8.832285714285714 14  L 13.696285714285715 14  C 14.163142857142857 14  14.521428571428572 14.341333333333333  14.521428571428572 14.8  C 14.521428571428572 15.258666666666665  14.163142857142859 15.599999999999998  13.696285714285715 15.599999999999998  Z " fill-rule="nonzero" fill="#666666" stroke="none" transform="matrix(1 0 0 1 332 465 )" />
  </g>
</svg>