<?xml version="1.0" encoding="utf-8"?>
<svg version="1.1" xmlns:xlink="http://www.w3.org/1999/xlink" width="20px" height="20px" xmlns="http://www.w3.org/2000/svg">
  <g transform="matrix(1 0 0 1 -42 -802 )">
    <path d="M 16.29333333333333 19.6  L 14 19.6  C 13.562666666666667 19.6  13.200000000000001 19.237333333333332  13.200000000000001 18.799999999999997  C 13.200000000000001 18.362666666666666  13.562666666666667 18  14 18  L 16.293333333333337 18  C 17.232 18  18 17.232  18 16.293333333333337  L 18 8.261333333333333  C 18 7.898666666666667  17.797333333333334 7.408000000000001  17.552 7.162666666666667  L 12.901333333333334 2.4586666666666677  C 12.656 2.2026666666666674  12.165333333333335 2.0000000000000013  11.813333333333333 2.0000000000000013  L 7.973333333333333 2.0000000000000013  C 7.034666666666666 2.0000000000000013  6.266666666666666 2.768000000000001  6.266666666666666 3.706666666666668  L 6.266666666666666 6.533333333333335  C 6.266666666666666 6.970666666666668  5.903999999999999 7.333333333333335  5.466666666666667 7.333333333333335  C 5.029333333333334 7.333333333333335  4.666666666666666 6.970666666666667  4.666666666666666 6.533333333333335  L 4.666666666666666 3.706666666666668  C 4.666666666666666 1.882666666666668  6.149333333333333 0.4000000000000015  7.973333333333333 0.4000000000000015  L 11.813333333333333 0.4000000000000015  C 12.591999999999999 0.4000000000000015  13.488 0.7733333333333349  14.042666666666667 1.3280000000000014  L 18.69333333333333 6.032000000000001  C 19.237333333333332 6.586666666666669  19.6 7.482666666666668  19.6 8.261333333333333  L 19.6 16.293333333333337  C 19.6 18.117333333333335  18.11733333333333 19.6  16.29333333333333 19.6  Z M 15.610666666666667 9.466666666666667  L 11.333333333333332 9.466666666666667  C 10.885333333333334 9.466666666666667  10.533333333333335 9.125333333333334  10.533333333333335 8.666666666666668  L 10.533333333333335 4.4  C 10.533333333333335 3.9413333333333336  10.885333333333334 3.5999999999999996  11.333333333333332 3.5999999999999996  C 11.770666666666665 3.5999999999999996  12.133333333333333 3.9413333333333327  12.133333333333333 4.4  L 12.133333333333333 7.866666666666667  L 15.610666666666667 7.866666666666667  C 16.058666666666667 7.866666666666667  16.410666666666668 8.229333333333335  16.400000000000002 8.666666666666668  C 16.410666666666668 9.114666666666668  16.058666666666667 9.466666666666667  15.610666666666667 9.466666666666667  Z M 10.832 19.365333333333332  C 10.501333333333335 19.674666666666663  10.021333333333333 19.685333333333332  9.701333333333332 19.365333333333332  L 7.983999999999999 17.648  C 7.1946666666666665 18.202666666666666  6.234666666666666 18.53333333333333  5.199999999999999 18.53333333333333  C 2.543999999999999 18.53333333333333  0.3999999999999992 16.389333333333333  0.3999999999999992 13.733333333333333  C 0.3999999999999992 11.077333333333332  2.543999999999999 8.933333333333332  5.199999999999999 8.933333333333332  C 7.856 8.933333333333332  10 11.077333333333332  10 13.733333333333333  C 10 14.767999999999999  9.669333333333332 15.728  9.114666666666668 16.51733333333333  L 10.832 18.234666666666662  C 11.173333333333336 18.576  11.130666666666668 19.087999999999997  10.832 19.365333333333332  Z M 2.000000000000001 13.733333333333333  C 2.000000000000001 15.504  3.429333333333334 16.93333333333333  5.2 16.93333333333333  C 6.970666666666667 16.93333333333333  8.4 15.504  8.4 13.733333333333333  C 8.4 11.962666666666664  6.970666666666667 10.533333333333331  5.2 10.533333333333331  C 3.4293333333333336 10.533333333333331  2.000000000000001 11.962666666666664  2.000000000000001 13.733333333333333  Z " fill-rule="nonzero" fill="#666666" stroke="none" transform="matrix(1 0 0 1 42 802 )" />
  </g>
</svg>